<?xml version="1.0" standalone="no"?>
<!DOCTYPE svg PUBLIC "-//W3C//DTD SVG 1.1//EN" "http://www.w3.org/Graphics/SVG/1.1/DTD/svg11.dtd">
<svg xmlns="http://www.w3.org/2000/svg">
<defs >
<font id="Jost" horiz-adv-x="546" ><font-face
    font-family="Jost Black"
    units-per-em="1000"
    panose-1="0 0 0 0 0 0 0 0 0 0"
    ascent="1070"
    descent="-375"
    alphabetic="0" />
<glyph unicode=" " horiz-adv-x="300" />
<glyph unicode="!" horiz-adv-x="370" d="M65 700L105 250H265L305 700H65ZM67 75Q67 28 100 -1T185 -30Q238 -30 270 -1T303 75Q303 122 271 151T185 180Q133 180 100 151T67 75Z" />
<glyph unicode="&quot;" horiz-adv-x="550" d="M90 700L50 370H175L290 700H90ZM320 700L280 370H405L520 700H320Z" />
<glyph unicode="#" horiz-adv-x="705" d="M75 395H222L256 405H468L506 395H670V550H75V395ZM35 155H630V310H508L472 300H224L182 310H35V155ZM485 700L434 492L435 452L386 252L369 222L315 0H480L650 700H485ZM225 700L55 0H220L275 226L272 256L319 450L339
492L390 700H225Z" />
<glyph unicode="$" horiz-adv-x="647" d="M264 818L274 618H408L418 818H264ZM274 70L264 -112H417L407 70H274ZM454 474L617 564Q592 603 558 636T472 690T338 710Q256 710 195 682T99 609T64 510Q64 457 84 419T136 353T201 309T261 281Q303 265 332 254T378
231T394 201Q394 186 388 177T367 163T330 158Q297 158 270 169T219 204T168 266L20 158Q42 115 88 77T196 15T325 -10Q415 -10 483 13T589 84T627 200Q627 244 615 279T578 341T522 389T448 424Q416 436 388 444T337 462T302 483T289 514Q289 525 295 535T313
552T346 559Q365 559 384 550T421 522T454 474Z" />
<glyph unicode="%" horiz-adv-x="1021" d="M15 525Q15 470 43 425T118 352T223 325Q281 325 328 352T403 424T431 525Q431 580 403 625T328 698T223 725Q166 725 119 698T43 626T15 525ZM172 525Q172 539 179 550T197 567T223 574Q237 574 248 568T267 550T274
525Q274 512 267 501T249 483T223 476Q209 476 198 482T179 500T172 525ZM590 176Q590 121 618 76T693 3T798 -24Q856 -24 903 3T978 75T1006 176Q1006 231 978 276T903 349T798 376Q741 376 694 349T618 277T590 176ZM747 176Q747 190 754 201T772 218T798 225Q812
225 823 219T842 201T849 176Q849 163 842 152T824 134T798 127Q784 127 773 133T754 151T747 176ZM703 700L113 0H318L908 700H703Z" />
<glyph unicode="&amp;" horiz-adv-x="799" d="M223 364L564 0H784L414 385Q383 418 361 441T328 484T316 521Q316 531 321 542T339 562T372 570Q388 570 400 562T418 543T425 522Q425 507 413 490T377 455T314 422Q292 413 258 402T187 375T116 335T61 276T40
190Q40 126 73 80T164 10T295 -15Q373 -15 441 10T565 75T664 162T736 255L611 356Q584 311 552 273T482 206T405 161T325 145Q295 145 277 154T251 179T243 209Q243 235 259 250T300 276T354 298T409 328Q455 360 490 383T548 428T584 477T596 544Q596 586 571
626T497 694T374 721Q297 721 243 693T160 621T132 536Q132 502 143 475T175 421T223 364Z" />
<glyph unicode="&apos;" horiz-adv-x="320" d="M90 700L50 370H175L290 700H90Z" />
<glyph unicode="(" horiz-adv-x="360" d="M180 780Q120 668 88 543T55 290Q55 163 87 38T180 -200H355Q303 -87 272 38T240 290Q240 418 271 543T355 780H180Z" />
<glyph unicode=")" horiz-adv-x="360" d="M180 -200Q240 -87 272 38T305 290Q305 418 273 543T180 780H5Q58 668 89 543T120 290Q120 163 89 38T5 -200H180Z" />
<glyph unicode="*" horiz-adv-x="592" d="M515 606L282 483L310 397L571 435L515 606ZM522 283L332 466L260 414L376 177L522 283ZM216 177L332 414L260 466L70 283L216 177ZM21 435L282 397L310 483L77 606L21 435ZM206 700L251 440H341L386 700H206Z" />
<glyph unicode="+" horiz-adv-x="710" d="M65 185H645V370H65V185ZM255 565V-10H455V565H255Z" />
<glyph unicode="," horiz-adv-x="333" d="M103 110L15 -149L163 -174L298 76L103 110Z" />
<glyph unicode="-" horiz-adv-x="230" d="M5 155H225V320H5V155Z" />
<glyph unicode="." horiz-adv-x="336" d="M50 85Q50 38 83 4T168 -30Q221 -30 253 4T286 85Q286 132 254 166T168 200Q116 200 83 166T50 85Z" />
<glyph unicode="/" horiz-adv-x="665" d="M465 700L15 -150H210L650 700H465Z" />
<glyph unicode="0" horiz-adv-x="700" d="M250 350Q250 392 257 425T278 482T310 518T350 530Q367 530 382 522T410 499T431 462T445 412T450 350Q450 308 443 275T422 218T390 182T350 170Q333 170 318 178T290 201T269 238T255 288T250 350ZM40 350Q40 278 54
220T96 118T161 45T247 0T350 -15Q423 -15 480 8T578 78T639 192T660 350Q660 422 647 480T607 582T543 655T457 700T350 715Q281 715 224 692T126 622T63 508T40 350Z" />
<glyph unicode="1" horiz-adv-x="545" d="M60 459L245 500V0H455V715L60 642V459Z" />
<glyph unicode="2" horiz-adv-x="709" d="M20 0H674V200H417L543 297Q591 334 620 378T649 481Q649 526 630 568T573 643T481 696T357 716Q255 716 187 676T84 570T50 430H265Q265 458 275 481T305 517T349 531Q368 531 381 526T404 511T417 490T421 465Q421 438
409 414T375 365T321 305L20 0Z" />
<glyph unicode="3" horiz-adv-x="666" d="M288 335Q357 335 418 344T526 375T599 431T626 516Q626 573 594 618T500 689T348 715Q263 715 201 683T104 597T70 476H271Q271 497 280 512T307 536T347 545Q369 545 382 540T403 524T410 501Q410 486 401 472T376 447T337
430T288 424V335ZM338 -20Q438 -20 506 8T610 84T646 195Q646 249 621 287T548 351T435 387T288 399V295Q329 295 356 289T400 271T423 245T430 215Q430 190 419 176T390 156T348 150Q326 150 305 159T270 189T256 245H40Q40 195 60 148T118 62T211 2T338 -20Z"
/>
<glyph unicode="4" horiz-adv-x="768" d="M10 115H718V300H575L558 265H285L408 421V187L378 176V0H608V700H428L10 115Z" />
<glyph unicode="5" horiz-adv-x="694" d="M654 220Q654 295 622 345T541 420T439 445Q402 445 369 441T306 422L341 510H632V700H182L81 277Q117 291 156 298T230 307T289 310Q317 310 345 306T392 289T411 250Q411 225 396 211T354 191T289 185Q271 185 243 189T182
205T112 236L50 42Q88 27 132 14T231 -7T349 -15Q400 -15 453 -2T552 39T626 112T654 220Z" />
<glyph unicode="6" horiz-adv-x="726" d="M269 255Q269 283 281 303T315 335T363 347Q390 347 411 336T444 304T457 255Q457 227 445 207T411 176T363 165Q337 165 316 176T282 207T269 255ZM335 695L154 480Q111 429 81 375T50 255Q50 161 93 100T207 10T363
-20Q448 -20 519 9T633 100T676 255Q676 311 656 353T602 425T530 468T454 483Q414 483 389 475T331 437L383 464L614 695H335Z" />
<glyph unicode="7" horiz-adv-x="650" d="M30 495H329L71 0H310L650 700H30V495Z" />
<glyph unicode="8" horiz-adv-x="676" d="M75 531Q75 479 99 442T163 381T249 346T338 335Q381 335 427 346T512 380T576 441T601 531Q601 579 580 615T522 674T438 708T338 720Q268 720 208 700T112 638T75 531ZM281 511Q281 529 288 542T308 563T338 570Q356
570 368 563T388 543T395 511Q395 493 388 480T369 458T338 450Q321 450 308 458T288 479T281 511ZM50 190Q50 138 74 99T139 33T232 -6T338 -20Q392 -20 443 -7T536 33T602 98T626 190Q626 250 598 290T526 354T431 389T338 400Q295 400 245 390T151 355T78 290T50
190ZM271 225Q271 243 279 258T303 281T338 290Q358 290 373 282T396 258T405 225Q405 202 397 187T373 163T338 155Q318 155 303 163T280 186T271 225Z" />
<glyph unicode="9" horiz-adv-x="726" d="M457 445Q457 417 445 397T411 365T363 353Q337 353 316 364T282 396T269 445Q269 473 281 493T315 524T363 535Q390 535 411 524T444 493T457 445ZM391 5L572 220Q615 271 645 325T676 445Q676 540 633 600T519 690T363
720Q278 720 207 691T93 601T50 445Q50 389 70 347T124 275T196 232T272 217Q312 217 337 226T395 263L343 236L112 5H391Z" />
<glyph unicode=":" horiz-adv-x="336" d="M50 85Q50 38 83 4T168 -30Q221 -30 253 4T286 85Q286 132 254 166T168 200Q116 200 83 166T50 85ZM50 455Q50 408 83 374T168 340Q221 340 253 374T286 455Q286 502 254 536T168 570Q116 570 83 536T50 455Z" />
<glyph unicode=";" horiz-adv-x="431" d="M115 445Q115 398 148 364T233 330Q286 330 318 364T351 445Q351 492 319 526T233 560Q181 560 148 526T115 445ZM138 110L50 -149L198 -174L333 76L138 110Z" />
<glyph unicode="&lt;" horiz-adv-x="640" d="M331 271L575 355V545L65 335V200L575 -10V180L331 271Z" />
<glyph unicode="=" horiz-adv-x="633" d="M50 50H583V215H50V50ZM50 290H583V455H50V290Z" />
<glyph unicode="&gt;" horiz-adv-x="640" d="M309 264L65 180V-10L575 200V335L65 545V355L309 264Z" />
<glyph unicode="?" horiz-adv-x="669" d="M423 500Q423 482 407 459T353 418T256 400H220L240 220H400L403 282Q456 295 505 322T587 393T619 500Q619 556 595 598T531 668T441 711T341 725Q282 725 230 709T130 663T40 587L165 476Q196 521 242 543T331 565Q361
565 381 558T412 536T423 500ZM202 70Q202 30 235 0T320 -30Q373 -30 405 0T438 70Q438 110 406 140T320 170Q268 170 235 140T202 70Z" />
<glyph unicode="@" horiz-adv-x="770" d="M346 320Q346 343 352 365T368 401T394 415Q402 415 407 410T414 393T417 360Q417 337 410 315T393 279T369 265Q363 265 358 271T349 290T346 320ZM200 310Q200 261 214 225T257 170T328 150Q366 150 398 176T451 251T471
370Q471 415 454 451T409 508T348 530Q311 530 277 504T222 429T200 310ZM10 320Q10 245 32 181T99 68T210 -8T365 -35Q436 -35 494 -22T598 15L560 125Q520 109 479 97T385 85Q301 85 248 114T170 195T145 320Q145 385 163 438T217 529T302 589T415 610Q467 610
506 593T571 546T611 476T625 390Q625 347 621 320T608 280T592 261T576 256Q570 256 566 260T559 272T557 292Q557 298 557 306T559 319L576 520H435L419 310L436 260Q431 227 448 200T495 157T561 140Q600 140 636 154T700 198T744 275T760 390Q760 453 737 514T668
623T559 701T415 730Q327 730 253 699T125 611T40 481T10 320Z" />
<glyph unicode="A" horiz-adv-x="780" d="M207 90H577V248H207V90ZM390 382L476 189L461 132L535 0H785L390 750L-5 0H245L321 139L304 189L390 382Z" />
<glyph unicode="B" horiz-adv-x="728" d="M232 335H375Q453 335 514 356T612 419T648 520Q648 565 628 598T570 654T483 688T375 700H70V0H395Q488 0 553 19T653 80T688 192Q688 248 662 287T592 352T498 388T395 400H232V280H365Q384 280 400 278T430 271T450
255T458 227Q458 199 445 186T411 169T365 165H290V535H345Q383 535 400 523T418 483Q418 465 410 452T386 432T345 425H232V335Z" />
<glyph unicode="C" horiz-adv-x="710" d="M272 350Q272 391 286 421T324 472T381 502T451 513Q501 513 537 501T600 468T650 427V653Q609 682 561 701T435 720Q344 720 269 694T141 619T59 502T30 350Q30 266 59 198T141 81T269 6T435 -20Q512 -20 560 -1T650
47V273Q628 252 601 233T537 200T451 187Q414 187 382 197T325 228T286 279T272 350Z" />
<glyph unicode="D" horiz-adv-x="765" d="M70 700V0H299V700H70ZM345 0Q437 0 509 24T631 93T708 203T735 350Q735 432 709 497T632 607T509 676T345 700H222V510H335Q364 510 394 505T449 484T489 436T505 350Q505 296 490 264T449 216T394 195T335 190H222V0H345Z" />
<glyph unicode="E" horiz-adv-x="635" d="M222 0H575V175H222V0ZM222 525H575V700H222V525ZM222 275H555V445H222V275ZM70 700V0H280V700H70Z" />
<glyph unicode="F" horiz-adv-x="585" d="M222 515H535V700H222V515ZM222 245H525V415H222V245ZM70 700V0H280V700H70Z" />
<glyph unicode="G" horiz-adv-x="838" d="M430 240H588Q579 221 566 205T535 178T494 161T440 155Q400 155 367 168T310 206T273 268T260 350Q260 396 274 430T313 488T370 523T440 535Q490 535 519 510T566 452L771 544Q736 593 690 632T582 696T440 720Q352
720 278 695T148 621T61 505T30 350Q30 264 59 194T142 74T269 -3T430 -30Q525 -30 598 3T719 95T788 232T802 400H430V240Z" />
<glyph unicode="H" horiz-adv-x="830" d="M117 265H677V460H117V265ZM540 700V0H760V700H540ZM70 700V0H290V700H70Z" />
<glyph unicode="I" horiz-adv-x="365" d="M70 700V0H295V700H70Z" />
<glyph unicode="J" horiz-adv-x="385" d="M-75 -39L-196 -190Q-168 -205 -132 -218T-52 -241T37 -250Q91 -250 141 -240T230 -206T292 -145T315 -50V700H70V5Q70 -37 50 -53T7 -70Q-12 -70 -34 -60T-75 -39Z" />
<glyph unicode="K" horiz-adv-x="781" d="M70 700V0H300V700H70ZM515 700L237 365L520 0H786L498 372L771 700H515Z" />
<glyph unicode="L" horiz-adv-x="575" d="M70 700V0H575V185H290V700H70Z" />
<glyph unicode="M" horiz-adv-x="940" d="M301 286L470 65L639 286L675 0H910L780 735L470 357L160 735L30 0H265L301 286Z" />
<glyph unicode="N" horiz-adv-x="805" d="M525 700V383L70 735V0H280V317L735 -35V700H525Z" />
<glyph unicode="O" horiz-adv-x="840" d="M263 350Q263 389 273 420T304 474T354 509T420 522Q459 522 488 510T537 475T567 421T577 350Q577 311 567 280T536 226T486 191T420 178Q383 178 354 190T305 225T274 279T263 350ZM30 350Q30 266 58 197T139 76T262
-2T420 -30Q506 -30 577 -3T701 76T781 196T810 350Q810 434 781 502T699 619T575 694T420 720Q338 720 267 694T143 619T60 502T30 350Z" />
<glyph unicode="P" horiz-adv-x="668" d="M70 700V0H290V700H70ZM212 525H345Q373 525 391 518T418 496T428 460Q428 440 419 425T391 403T345 395H212V220H345Q448 220 512 249T607 332T638 460Q638 535 608 588T513 671T345 700H212V525Z" />
<glyph unicode="Q" horiz-adv-x="908" d="M263 350Q263 389 274 420T307 474T358 509T425 522Q471 522 505 505T562 460T596 395T607 320Q607 281 596 251T563 201T512 169T445 158Q408 158 376 170T318 207T278 268T263 350ZM30 350Q30 266 59 197T141 76T267
-2T425 -30Q511 -30 581 -3T703 76T782 196T810 350Q810 434 782 502T702 619T580 694T425 720Q343 720 272 694T146 619T61 502T30 350ZM343 300L693 -20H918L558 300H343Z" />
<glyph unicode="R" horiz-adv-x="700" d="M275 300L445 0H700L500 300H275ZM70 700V0H290V700H70ZM212 515H345Q373 515 391 508T418 486T428 450Q428 430 419 415T391 393T345 385H212V220H365Q468 220 532 251T627 336T658 460Q658 530 628 584T533 669T365
700H212V515Z" />
<glyph unicode="S" horiz-adv-x="672" d="M178 266L30 158Q54 105 101 62T212 -5T352 -30Q406 -30 457 -15T548 29T613 102T637 205Q637 246 625 279T590 340T533 387T458 423Q427 434 400 443T353 461T320 481T308 509Q308 521 314 528T333 538T360 542Q379 542
399 535T438 514T474 474L637 564Q618 600 582 636T489 696T353 720Q280 720 219 696T121 625T84 509Q84 456 103 417T152 351T214 307T272 280Q329 258 357 245T394 222T404 198Q404 183 396 173T374 159T342 154Q311 154 281 167T224 205T178 266Z" />
<glyph unicode="T" horiz-adv-x="620" d="M0 505H200V0H420V505H620V700H0V505Z" />
<glyph unicode="U" horiz-adv-x="746" d="M65 700V230Q65 155 89 104T157 21T255 -25T373 -40Q435 -40 490 -26T589 20T656 103T681 230V700H461V250Q461 222 452 201T423 167T373 155Q343 155 324 167T295 200T285 250V700H65Z" />
<glyph unicode="V" horiz-adv-x="780" d="M390 358L255 700H-5L390 -50L785 700H525L390 358Z" />
<glyph unicode="W" horiz-adv-x="1110" d="M737 371L555 735L373 371L265 700H0L320 -45L555 303L790 -45L1110 700H845L737 371Z" />
<glyph unicode="X" horiz-adv-x="765" d="M475 700L386 531L300 700H25L248 354L0 0H275L384 196L490 0H765L523 354L750 700H475Z" />
<glyph unicode="Y" horiz-adv-x="720" d="M470 700L360 474L250 700H-5L248 273V0H473V275L725 700H470Z" />
<glyph unicode="Z" horiz-adv-x="665" d="M70 505H306L5 0H610V185H347L655 700H70V505Z" />
<glyph unicode="[" horiz-adv-x="400" d="M279 615H380V780H85V-220H380V-55H279V615Z" />
<glyph unicode="\" horiz-adv-x="565" d="M15 700L365 0H550L200 700H15Z" />
<glyph unicode="]" horiz-adv-x="400" d="M121 -55H20V-220H315V780H20V615H121V-55Z" />
<glyph unicode="^" horiz-adv-x="510" d="M255 556L315 440H485L315 710H195L25 440H195L255 556Z" />
<glyph unicode="_" horiz-adv-x="550" d="M0 -166H550V-45H0V-166Z" />
<glyph unicode="`" horiz-adv-x="375" d="M40 650L220 500L330 550L180 710L40 650Z" />
<glyph unicode="a" horiz-adv-x="574" d="M216 145Q216 157 221 164T237 176T268 180Q298 180 326 171T372 147V226Q357 242 331 252T271 269T201 275Q143 275 103 258T41 210T20 134Q20 87 43 55T104 6T187 -10Q235 -10 273 6T333 54T355 130L339 190Q339 160
328 142T299 115T262 106Q250 106 240 110T223 123T216 145ZM115 298Q124 303 148 311T203 326T262 333Q283 333 298 329T322 316T335 296T339 272V0H524V320Q524 370 493 404T409 457T291 475Q225 475 165 459T56 424L115 298Z" />
<glyph unicode="b" horiz-adv-x="645" d="M245 780H50V0H245V780ZM615 230Q615 310 584 363T504 443T402 470Q359 470 322 454T258 406T215 331T199 230Q199 174 214 130T257 54T322 7T402 -10Q455 -10 503 17T583 97T615 230ZM409 230Q409 205 398 185T369 152T327
140Q312 140 298 146T271 164T252 192T245 230Q245 251 252 267T271 296T297 314T327 320Q350 320 368 308T398 276T409 230Z" />
<glyph unicode="c" horiz-adv-x="503" d="M231 230Q231 256 245 276T282 309T333 322Q350 322 372 317T416 299T453 264V441Q429 452 399 461T313 470Q231 470 167 441T67 359T30 230Q30 156 66 102T167 19T313 -10Q368 -10 398 -1T453 21V197Q438 176 418 163T377
144T333 138Q306 138 283 148T245 179T231 230Z" />
<glyph unicode="d" horiz-adv-x="645" d="M400 780V0H595V780H400ZM30 230Q30 151 61 98T142 17T243 -10Q286 -10 323 6T387 54T430 129T446 230Q446 286 431 330T388 406T323 453T243 470Q191 470 142 443T62 363T30 230ZM236 230Q236 256 247 276T277 308T318
320Q333 320 347 314T374 296T393 268T400 230Q400 209 393 193T374 164T348 146T318 140Q296 140 277 152T247 184T236 230Z" />
<glyph unicode="e" horiz-adv-x="609" d="M318 -10Q414 -10 479 26T582 137L404 165Q392 143 368 132T308 120Q281 120 263 133T235 170T226 230Q226 262 230 284T244 321T268 343T303 350Q323 350 337 341T360 315T368 274Q368 267 364 257T354 238L392 284H136V190H573Q575
201 575 213T575 239Q575 314 545 365T455 443T308 470Q242 470 191 454T103 407T49 332T30 230Q30 155 64 102T163 19T318 -10Z" />
<glyph unicode="f" horiz-adv-x="379" d="M5 460V305H370V460H5ZM348 605L419 743Q407 753 388 766T339 790T268 800Q201 800 157 778T92 718T70 630V0H255V575Q255 593 261 605T277 624T303 630Q317 630 327 623T348 605Z" />
<glyph unicode="g" horiz-adv-x="635" d="M40 -35Q49 -97 76 -144T161 -218T316 -245Q394 -245 454 -221T550 -140T585 10V460H400V10Q400 -23 389 -46T357 -82T306 -95Q286 -95 270 -91T242 -73T227 -35H40ZM30 240Q30 161 61 110T142 35T243 10Q286 10 323 25T387
69T430 141T446 240Q446 296 431 339T388 411T323 455T243 470Q191 470 142 446T62 371T30 240ZM236 240Q236 266 247 283T277 310T318 320Q333 320 347 316T374 301T393 276T400 240Q400 219 393 204T374 179T348 165T318 160Q296 160 277 169T247 197T236 240Z"
/>
<glyph unicode="h" horiz-adv-x="595" d="M245 780H50V0H245V780ZM350 280V0H545V310Q545 365 532 403T484 461T387 481Q325 481 288 454T235 381T219 280H245Q245 303 252 317T272 339T302 346Q322 346 332 338T346 316T350 280Z" />
<glyph unicode="i" horiz-adv-x="286" d="M35 622Q35 578 66 551T143 524Q188 524 219 551T251 622Q251 666 220 693T143 720Q98 720 67 693T35 622ZM49 460V0H236V460H49Z" />
<glyph unicode="j" horiz-adv-x="285" d="M35 622Q35 578 66 551T143 524Q188 524 219 551T251 622Q251 666 220 693T143 720Q98 720 67 693T35 622ZM-43 -55L-114 -193Q-101 -203 -82 -216T-34 -240T37 -250Q104 -250 148 -228T213 -168T235 -80V460H50V-25Q50
-43 45 -55T28 -73T2 -80Q-12 -80 -22 -73T-43 -55Z" />
<glyph unicode="k" horiz-adv-x="660" d="M50 780V0H235V780H50ZM401 460L206 270L425 0H650L435 270L630 460H401Z" />
<glyph unicode="l" horiz-adv-x="295" d="M50 780V0H245V780H50Z" />
<glyph unicode="m" horiz-adv-x="845" d="M795 300Q795 355 783 393T741 451T652 471Q605 471 567 452T503 401Q495 425 479 440T436 463T372 471Q339 471 313 461T267 433T235 391V460H50V0H235V280Q235 303 241 317T257 339T279 346Q294 346 303 338T316 316T320
280V0H515V280Q515 303 521 317T537 339T559 346Q574 346 583 338T596 316T600 280V0H795V300Z" />
<glyph unicode="n" horiz-adv-x="605" d="M350 280V0H555V300Q555 355 539 393T487 451T387 471Q333 471 299 450T245 393V460H50V0H245V280Q245 303 252 317T272 339T302 346Q322 346 332 338T346 316T350 280Z" />
<glyph unicode="o" horiz-adv-x="616" d="M30 230Q30 156 66 102T165 19T308 -10Q388 -10 451 19T550 102T586 230Q586 305 550 359T451 442T308 471Q228 471 165 442T66 359T30 230ZM231 230Q231 258 242 277T270 306T308 316Q328 316 345 306T374 277T385 230Q385
202 374 183T346 155T308 145Q288 145 271 154T242 183T231 230Z" />
<glyph unicode="p" horiz-adv-x="645" d="M245 -220V460H50V-220H245ZM615 230Q615 315 584 370T504 452T402 480Q355 480 319 462T259 411T222 332T209 230Q209 174 221 128T258 49T319 -2T402 -20Q455 -20 503 7T583 90T615 230ZM409 230Q409 205 398 187T369
160T327 150Q312 150 298 154T271 169T252 194T245 230Q245 251 252 266T271 291T297 305T327 310Q350 310 368 301T398 274T409 230Z" />
<glyph unicode="q" horiz-adv-x="645" d="M400 -220H595V460H400V-220ZM30 230Q30 146 61 91T142 8T243 -20Q290 -20 326 -2T386 49T423 128T436 230Q436 286 424 332T387 411T326 462T243 480Q191 480 142 453T62 370T30 230ZM236 230Q236 256 247 273T277 300T318
310Q333 310 347 306T374 291T393 266T400 230Q400 209 393 194T374 169T348 155T318 150Q296 150 277 159T247 187T236 230Z" />
<glyph unicode="r" horiz-adv-x="453" d="M240 460H50V0H240V460ZM369 262L448 430Q439 447 416 459T367 472Q325 472 288 447T227 378T204 280L240 195Q240 228 250 249T278 280T312 290Q332 290 346 282T369 262Z" />
<glyph unicode="s" horiz-adv-x="488" d="M78 183L15 46Q57 24 99 8T187 -16T285 -25Q345 -25 385 -9T447 41T468 130Q468 174 450 200T403 242T341 270Q301 285 277 292T241 306T229 327Q229 334 235 340T259 346Q287 346 329 329T406 282L454 415Q420 431 386
443T316 462T238 470Q181 470 140 454T75 408T52 334Q52 288 70 259T117 214T181 186Q224 173 244 165T269 149T275 133Q275 123 269 117T246 110Q238 110 217 114T161 133T78 183Z" />
<glyph unicode="t" horiz-adv-x="365" d="M5 460V305H360V460H5ZM90 620V0H275V620H90Z" />
<glyph unicode="u" horiz-adv-x="605" d="M255 180V460H50V160Q50 106 66 68T119 9T218 -11Q272 -11 306 10T360 67V0H555V460H360V180Q360 157 353 143T334 121T303 114Q283 114 273 122T259 145T255 180Z" />
<glyph unicode="v" horiz-adv-x="580" d="M-5 460L290 -65L585 460H380L290 247L200 460H-5Z" />
<glyph unicode="w" horiz-adv-x="810" d="M-15 460L245 -25L405 211L565 -25L825 460H625L541 263L405 495L269 263L185 460H-15Z" />
<glyph unicode="x" horiz-adv-x="600" d="M375 460L304 363L235 460H10L202 236L0 0H225L304 109L385 0H600L402 236L590 460H375Z" />
<glyph unicode="y" horiz-adv-x="570" d="M585 460H390L240 85H345L195 460H-15L198 20L95 -220H285L585 460Z" />
<glyph unicode="z" horiz-adv-x="560" d="M230 285L15 0H505V175H349L545 460H65V285H230Z" />
<glyph unicode="{" horiz-adv-x="451" d="M318 580Q318 600 331 615T366 630H401V780H291Q239 780 195 766T125 721T98 640V470Q98 413 83 391T30 360V220Q68 213 83 190T98 110V-60Q98 -109 124 -140T195 -185T291 -200H401V-50H366Q351 -50 341 -43T324 -25T318
0V90Q318 123 315 160T296 228T248 280T155 300V280Q215 280 248 300T296 351T314 420T318 490V580Z" />
<glyph unicode="|" horiz-adv-x="400" d="M100 785V-215H300V785H100Z" />
<glyph unicode="}" horiz-adv-x="451" d="M133 0Q133 -19 121 -34T85 -50H50V-200H160Q212 -200 256 -186T326 -140T353 -60V110Q353 167 368 190T421 220V360Q384 368 369 390T353 470V640Q353 690 327 720T256 765T160 780H50V630H85Q100 630 111 623T127 605T133
580V490Q133 457 136 420T155 352T203 300T296 280V300Q236 300 203 280T155 229T137 160T133 90V0Z" />
<glyph unicode="~" horiz-adv-x="575" d="M165 156Q163 162 161 168T158 188Q158 199 164 213T193 228Q206 228 218 224T244 211T274 193Q314 169 342 156T404 142Q454 142 480 157T527 198Q547 223 553 251T560 310Q560 318 559 325T556 338L409 343Q412 336
414 326T417 306Q417 294 411 283T390 272Q377 272 361 282T320 308Q294 324 275 335T238 351T194 357Q133 357 103 339T51 295Q30 270 23 243T15 185Q15 178 16 172T18 161L165 156Z" />
<glyph unicode="&#xa0;" horiz-adv-x="300" />
<glyph unicode="&#xa1;" horiz-adv-x="370" d="M305 -220L265 230H105L65 -220H305ZM303 405Q303 452 271 481T185 510Q133 510 100 481T67 405Q67 358 100 329T185 300Q238 300 270 329T303 405Z" />
<glyph unicode="&#xa2;" horiz-adv-x="580" d="M210 38L195 -112H364L349 38H210ZM231 230Q231 258 246 278T285 310T334 322Q375 322 403 305T454 261V441Q430 454 396 462T314 470Q232 470 168 441T68 359T31 230Q31 156 67 102T168 19T314 -10Q361 -10 395
-2T454 19V199Q431 173 403 156T334 138Q309 138 286 147T247 177T231 230ZM195 578L210 428H349L364 578H195Z" />
<glyph unicode="&#xa3;" horiz-adv-x="630" d="M67 370V255H457V370H67ZM425 459L601 523Q599 557 580 590T525 650T441 693T331 710Q279 710 232 698T147 661T88 603T66 523Q66 491 76 469T103 429T135 395T161 358T172 309Q172 255 161 204T121 102T44 0H552V175H214L132
50Q160 58 198 78T272 129T333 197T358 274Q358 308 349 332T327 376T300 411T277 443T268 480Q268 503 278 517T304 539T341 546Q366 546 381 539T406 519T419 491T425 459Z" />
<glyph unicode="&#xa4;" horiz-adv-x="575" d="M15 503L119 400L188 469L85 573L15 503ZM85 27L188 131L119 200L15 97L85 27ZM457 400L560 503L491 573L387 469L457 400ZM387 131L491 27L560 97L457 200L387 131ZM50 300Q50 231 81 177T167 91T288 60Q356 60
409 91T494 176T526 300Q526 370 495 424T410 509T288 540Q221 540 167 509T82 424T50 300ZM221 300Q221 321 229 335T253 357T288 365Q308 365 323 358T346 336T355 300Q355 280 347 265T323 243T288 235Q268 235 253 242T230 265T221 300Z" />
<glyph unicode="&#xa5;" horiz-adv-x="723" d="M45 250H675V365H45V250ZM45 100H675V215H45V100ZM471 700L360 474L250 700H-5L248 273V0H474V276L725 700H471Z" />
<glyph unicode="&#xa6;" horiz-adv-x="400" d="M100 695V415H300V695H100ZM300 285H100V5H300V285Z" />
<glyph unicode="&#xa7;" horiz-adv-x="679" d="M455 531L531 665Q514 683 483 698T413 722T331 732Q282 732 234 715T155 662T123 572Q123 539 133 515T161 474T198 444T240 424Q266 414 297 404T350 378T372 333Q372 313 361 301T334 281T303 268V222Q346 222
388 232T465 262T521 313T542 383Q542 422 524 451T474 499T400 527Q379 532 362 534T332 539T313 545T306 557Q306 562 310 566T322 574T346 577Q360 577 379 571T418 555T455 531ZM147 181L71 47Q103 25 139 8T222 -20T331 -30Q368 -30 406 -21T477 9T529 59T549
130Q549 174 531 203T484 253T422 286Q403 294 379 300T332 314T295 335T280 369Q280 390 291 402T318 421T349 434V480Q306 480 263 470T182 440T123 389T100 319Q100 281 123 254T183 209T262 182Q290 176 311 172T344 161T356 145Q356 140 353 136T340 128T316
125Q303 125 277 129T217 146T147 181Z" />
<glyph unicode="&#xa8;" horiz-adv-x="536" d="M295 615Q295 571 326 544T403 517Q448 517 479 544T511 615Q511 659 480 686T403 713Q358 713 327 686T295 615ZM25 615Q25 571 56 544T133 517Q178 517 209 544T241 615Q241 659 210 686T133 713Q88 713 57 686T25 615Z" />
<glyph unicode="&#xa9;" horiz-adv-x="800" d="M319 350Q319 383 333 404T373 437T427 448Q471 448 499 432T546 396V532Q521 549 492 560T417 572Q344 572 290 545T205 467T174 350Q174 283 204 233T289 156T417 128Q463 128 492 139T546 168V304Q527 285 499
269T427 252Q398 252 373 263T334 296T319 350ZM95 350Q95 417 118 473T182 572T279 637T400 660Q465 660 520 637T617 572T682 474T705 350Q705 283 682 227T618 128T521 63T400 40Q335 40 280 63T183 128T118 226T95 350ZM40 350Q40 272 67 206T143 92T258 17T400
-10Q477 -10 542 16T656 91T732 206T760 350Q760 428 733 494T657 608T543 683T400 710Q324 710 258 684T144 609T68 494T40 350Z" />
<glyph unicode="&#xaa;" horiz-adv-x="290" d="M114 529Q114 538 122 544T143 550Q161 550 172 546T194 533V577Q185 586 162 591T116 597Q71 597 44 578T16 525Q16 492 39 474T102 455Q138 455 162 473T186 525L178 555Q178 530 165 522T137 513Q128 513 121
516T114 529ZM66 612Q74 617 95 623T142 630Q161 630 169 620T178 596V460H270V628Q270 666 237 685T152 705Q121 705 91 697T36 680L66 612Z" />
<glyph unicode="&#xab;" horiz-adv-x="560" d="M390 259L540 445L420 520L250 255L420 -10L540 65L390 259ZM160 259L310 445L190 520L20 255L190 -10L310 65L160 259Z" />
<glyph unicode="&#xac;" horiz-adv-x="669" d="M65 255H479V175H604V420H65V255Z" />
<glyph unicode="&#xad;" horiz-adv-x="210" d="M5 200H205V275H5V200Z" />
<glyph unicode="&#xae;" horiz-adv-x="800" d="M394 310L456 150H609L509 310H394ZM241 570V150H373V570H241ZM326 459L406 460Q431 460 443 453T456 426Q456 407 444 399T406 391H326V292H418Q510 292 552 333T594 436Q594 491 552 530T418 570H326V459ZM95 350Q95
417 118 473T182 572T279 637T400 660Q465 660 520 637T617 572T682 474T705 350Q705 283 682 227T618 128T521 63T400 40Q335 40 280 63T183 128T118 226T95 350ZM40 350Q40 272 67 206T143 92T258 17T400 -10Q477 -10 542 16T656 91T732 206T760 350Q760 428
733 494T657 608T543 683T400 710Q324 710 258 684T144 609T68 494T40 350Z" />
<glyph unicode="&#xaf;" horiz-adv-x="545" d="M80 555H465V720H80V555Z" />
<glyph unicode="&#xb0;" horiz-adv-x="308" d="M15 595Q15 558 33 530T82 486T153 470Q193 470 224 486T274 530T293 595Q293 632 275 660T225 704T153 720Q113 720 82 704T33 660T15 595ZM110 595Q110 609 115 619T131 634T153 640Q172 640 184 628T197 595Q197
581 191 571T176 556T153 551Q134 551 122 562T110 595Z" />
<glyph unicode="&#xb1;" horiz-adv-x="645" d="M65 10H580V170H65V10ZM65 325H580V495H65V325ZM225 620V200H420V620H225Z" />
<glyph unicode="&#xb2;" horiz-adv-x="446" d="M25 282H417V402H263L339 460Q368 482 385 509T402 571Q402 607 382 639T322 691T227 712Q166 712 125 688T64 624T43 540H172Q172 557 178 571T195 593T222 601Q238 601 247 596T261 581T266 561Q266 536 250 516T206
465L25 282Z" />
<glyph unicode="&#xb3;" horiz-adv-x="397" d="M162 481Q218 481 264 491T337 526T365 590Q365 624 346 651T290 693T198 709Q122 709 77 668T31 566H152Q152 585 164 596T197 607Q217 607 226 600T235 581Q235 569 226 558T200 541T162 534V481ZM192 268Q252
268 293 285T356 331T377 397Q377 429 362 452T318 490T250 512T162 519V457Q195 457 213 450T239 433T247 409Q247 386 233 378T198 370Q178 370 161 382T143 427H13Q13 387 34 351T95 291T192 268Z" />
<glyph unicode="&#xb4;" horiz-adv-x="375" d="M330 650L190 710L40 550L150 500L330 650Z" />
<glyph unicode="&#xb5;" horiz-adv-x="605" d="M255 460H50V-320H235V20Q255 7 268 4T294 0Q317 0 333 14T360 47V0H555V460H360V220Q360 197 353 183T334 161T303 154Q283 154 273 162T259 185T255 220V460Z" />
<glyph unicode="&#xb6;" horiz-adv-x="728" d="M288 270V-220H458V590H498V-220H668V700H288Q226 700 174 675T91 603T60 485Q60 416 91 368T174 295T288 270Z" />
<glyph unicode="&#xb7;" horiz-adv-x="336" d="M50 285Q50 254 65 228T106 186T168 170Q203 170 229 185T271 227T286 285Q286 317 271 343T230 384T168 400Q133 400 107 385T65 343T50 285Z" />
<glyph unicode="&#xb8;" horiz-adv-x="420" d="M176 78L87 -133Q119 -122 148 -120T184 -118Q199 -118 214 -119T240 -127T251 -148Q251 -160 244 -167T224 -177T194 -180Q182 -180 153 -175T102 -154L49 -240Q93 -263 134 -271T226 -280Q260 -280 293 -267T349
-228T372 -162Q372 -124 356 -99T315 -62T269 -50Q254 -50 241 -51T216 -56L316 72L176 78Z" />
<glyph unicode="&#xb9;" horiz-adv-x="490" d="M122 549L233 574V274H359V703L122 659V549Z" />
<glyph unicode="&#xba;" horiz-adv-x="278" d="M18 580Q18 525 57 493T156 460Q196 460 227 474T277 516T296 580Q296 617 278 644T228 685T156 700Q116 700 85 686T36 644T18 580ZM118 580Q118 594 123 603T137 618T156 623Q171 623 183 612T195 580Q195 566
190 557T175 543T156 538Q141 538 130 548T118 580Z" />
<glyph unicode="&#xbb;" horiz-adv-x="560" d="M170 251L20 65L140 -10L310 255L140 520L20 445L170 251ZM400 251L250 65L370 -10L540 255L370 520L250 445L400 251Z" />
<glyph unicode="&#xbc;" horiz-adv-x="864" d="M638 700L118 0H233L753 700H638ZM20 549L131 574V274H257V703L20 659V549ZM412 69H837V180H718L708 159H520L412 69ZM544 117L651 253V97L633 91V0H771V420H663L412 69L544 117Z" />
<glyph unicode="&#xbd;" horiz-adv-x="939" d="M638 700L118 0H233L753 700H638ZM20 549L131 574V274H257V703L20 659V549ZM513 2H905V122H751L827 180Q856 202 873 229T890 291Q890 327 870 359T810 411T715 432Q654 432 613 408T552 344T531 260H660Q660 277
666 291T684 313T710 321Q726 321 735 316T749 301T754 281Q754 256 738 236T694 185L513 2Z" />
<glyph unicode="&#xbe;" horiz-adv-x="915" d="M700 700L180 0H295L815 700H700ZM172 481Q228 481 274 491T347 526T375 590Q375 624 356 651T300 693T208 709Q132 709 87 668T41 566H162Q162 585 174 596T207 607Q227 607 236 600T245 581Q245 569 236 558T210
541T172 534V481ZM202 268Q262 268 303 285T366 331T387 397Q387 429 372 452T328 490T260 512T172 519V457Q205 457 223 450T249 433T257 409Q257 386 243 378T208 370Q188 370 171 382T153 427H23Q23 387 44 351T105 291T202 268ZM464 69H889V180H770L760 159H572L464
69ZM596 117L703 253V97L685 91V0H823V420H715L464 69L596 117Z" />
<glyph unicode="&#xbf;" horiz-adv-x="669" d="M246 200Q246 218 263 241T316 282T413 300H449L429 480H269L266 418Q213 405 164 378T82 307T50 200Q50 144 74 102T138 32T228 -11T328 -25Q388 -25 440 -9T539 37T629 113L504 224Q473 179 427 157T338 135Q308
135 288 142T257 165T246 200ZM467 630Q467 670 435 700T349 730Q314 730 288 716T246 680T231 630Q231 590 264 560T349 530Q384 530 410 544T452 581T467 630Z" />
<glyph unicode="&#xc0;" horiz-adv-x="780" d="M207 90H577V248H207V90ZM390 382L476 189L461 132L535 0H785L390 750L-5 0H245L321 139L304 189L390 382ZM210 960L390 810L500 860L350 1020L210 960Z" />
<glyph unicode="&#xc1;" horiz-adv-x="780" d="M207 90H577V248H207V90ZM390 382L476 189L461 132L535 0H785L390 750L-5 0H245L321 139L304 189L390 382ZM565 960L425 1020L275 860L385 810L565 960Z" />
<glyph unicode="&#xc2;" horiz-adv-x="780" d="M207 90H577V248H207V90ZM390 382L476 189L461 132L535 0H785L390 750L-5 0H245L321 139L304 189L390 382ZM390 890L470 810L610 900L390 1040L170 900L310 810L390 890Z" />
<glyph unicode="&#xc3;" horiz-adv-x="780" d="M207 90H577V248H207V90ZM390 382L476 189L461 132L535 0H785L390 750L-5 0H245L321 139L304 189L390 382ZM175 893L258 816Q258 824 261 836T275 857T303 867Q329 867 353 853T402 824T454 810Q489 810 520 825T574
863T605 903L519 996Q504 972 487 956T448 940Q426 940 410 948T380 967T347 986T304 995Q267 995 240 980T196 941T175 893Z" />
<glyph unicode="&#xc4;" horiz-adv-x="780" d="M207 90H577V248H207V90ZM390 382L476 189L461 132L535 0H785L390 750L-5 0H245L321 139L304 189L390 382ZM447 818Q447 774 478 747T555 720Q600 720 631 747T663 818Q663 862 632 889T555 916Q510 916 479 889T447
818ZM107 828Q107 784 138 757T215 730Q260 730 291 757T323 828Q323 872 292 899T215 926Q170 926 139 899T107 828Z" />
<glyph unicode="&#xc5;" horiz-adv-x="780" d="M207 90H577V248H207V90ZM390 382L476 189L461 132L535 0H785L390 750L-5 0H245L321 139L304 189L390 382ZM251 802Q251 765 269 737T318 693T389 677Q429 677 460 693T510 737T529 802Q529 839 511 867T461 911T389
927Q349 927 318 911T269 867T251 802ZM346 802Q346 816 351 826T367 841T389 847Q408 847 420 835T433 802Q433 788 427 778T412 763T389 758Q370 758 358 769T346 802Z" />
<glyph unicode="&#xc6;" horiz-adv-x="1160" d="M302 115H612V315H312L302 115ZM440 700L20 0H305L659 660L440 700ZM687 0H1090V175H687V0ZM695 525H1090V700H440L695 525ZM687 275H1070V445H687V275ZM585 700V0H825V700H585Z" />
<glyph unicode="&#xc7;" horiz-adv-x="710" d="M272 350Q272 391 286 421T324 472T381 502T451 513Q501 513 537 501T600 468T650 427V653Q609 682 561 701T435 720Q344 720 269 694T141 619T59 502T30 350Q30 266 59 198T141 81T269 6T435 -20Q512 -20 560 -1T650
47V273Q628 252 601 233T537 200T451 187Q414 187 382 197T325 228T286 279T272 350ZM345 42L256 -169Q288 -159 317 -157T353 -154Q368 -154 383 -155T409 -163T420 -184Q420 -196 413 -203T393 -213T363 -216Q351 -216 322 -211T271 -190L218 -276Q262 -299 303
-307T395 -316Q429 -316 462 -303T518 -264T541 -198Q541 -160 525 -135T484 -98T438 -86Q423 -86 410 -87T385 -92L485 36L345 42Z" />
<glyph unicode="&#xc8;" horiz-adv-x="635" d="M222 0H575V175H222V0ZM222 525H575V700H222V525ZM222 275H555V445H222V275ZM70 700V0H280V700H70ZM142 940L322 790L432 840L282 1000L142 940Z" />
<glyph unicode="&#xc9;" horiz-adv-x="635" d="M222 0H575V175H222V0ZM222 525H575V700H222V525ZM222 275H555V445H222V275ZM70 700V0H280V700H70ZM498 940L358 1000L208 840L318 790L498 940Z" />
<glyph unicode="&#xca;" horiz-adv-x="635" d="M222 0H575V175H222V0ZM222 525H575V700H222V525ZM222 275H555V445H222V275ZM70 700V0H280V700H70ZM322 860L402 780L542 870L322 1010L102 870L242 780L322 860Z" />
<glyph unicode="&#xcb;" horiz-adv-x="635" d="M222 0H575V175H222V0ZM222 525H575V700H222V525ZM222 275H555V445H222V275ZM70 700V0H280V700H70ZM350 878Q350 834 381 807T458 780Q503 780 534 807T566 878Q566 922 535 949T458 976Q413 976 382 949T350 878ZM80
878Q80 834 111 807T188 780Q233 780 264 807T296 878Q296 922 265 949T188 976Q143 976 112 949T80 878Z" />
<glyph unicode="&#xcc;" horiz-adv-x="365" d="M70 700V0H295V700H70ZM-8 940L172 790L282 840L132 1000L-8 940Z" />
<glyph unicode="&#xcd;" horiz-adv-x="365" d="M70 700V0H295V700H70ZM348 940L208 1000L58 840L168 790L348 940Z" />
<glyph unicode="&#xce;" horiz-adv-x="365" d="M70 700V0H295V700H70ZM183 860L263 780L403 870L183 1010L-37 870L103 780L183 860Z" />
<glyph unicode="&#xcf;" horiz-adv-x="365" d="M70 700V0H295V700H70ZM210 878Q210 834 241 807T318 780Q363 780 394 807T426 878Q426 922 395 949T318 976Q273 976 242 949T210 878ZM-60 878Q-60 834 -29 807T48 780Q93 780 124 807T156 878Q156 922 125 949T48
976Q3 976 -28 949T-60 878Z" />
<glyph unicode="&#xd0;" horiz-adv-x="765" d="M6 298H386V413H6V298ZM70 700V0H299V700H70ZM345 0Q467 0 554 42T688 162T735 350Q735 460 689 538T555 658T345 700H222V510H335Q364 510 394 505T449 484T489 436T505 350Q505 296 490 264T449 216T394 195T335
190H222V0H345Z" />
<glyph unicode="&#xd1;" horiz-adv-x="805" d="M525 700V383L70 735V0H280V317L735 -35V700H525ZM145 858L228 781Q228 789 231 801T245 822T273 832Q299 832 323 818T372 789T424 775Q459 775 490 790T544 828T575 868L489 961Q474 937 457 921T418 905Q396 905
380 913T350 932T317 951T274 960Q237 960 210 945T166 906T145 858Z" />
<glyph unicode="&#xd2;" horiz-adv-x="840" d="M263 350Q263 389 273 420T304 474T354 509T420 522Q459 522 488 510T537 475T567 421T577 350Q577 311 567 280T536 226T486 191T420 178Q383 178 354 190T305 225T274 279T263 350ZM30 350Q30 266 58 197T139 76T262
-2T420 -30Q506 -30 577 -3T701 76T781 196T810 350Q810 434 781 502T699 619T575 694T420 720Q338 720 267 694T143 619T60 502T30 350ZM255 940L435 790L545 840L395 1000L255 940Z" />
<glyph unicode="&#xd3;" horiz-adv-x="840" d="M263 350Q263 389 273 420T304 474T354 509T420 522Q459 522 488 510T537 475T567 421T577 350Q577 311 567 280T536 226T486 191T420 178Q383 178 354 190T305 225T274 279T263 350ZM30 350Q30 266 58 197T139 76T262
-2T420 -30Q506 -30 577 -3T701 76T781 196T810 350Q810 434 781 502T699 619T575 694T420 720Q338 720 267 694T143 619T60 502T30 350ZM610 940L470 1000L320 840L430 790L610 940Z" />
<glyph unicode="&#xd4;" horiz-adv-x="840" d="M263 350Q263 389 273 420T304 474T354 509T420 522Q459 522 488 510T537 475T567 421T577 350Q577 311 567 280T536 226T486 191T420 178Q383 178 354 190T305 225T274 279T263 350ZM30 350Q30 266 58 197T139 76T262
-2T420 -30Q506 -30 577 -3T701 76T781 196T810 350Q810 434 781 502T699 619T575 694T420 720Q338 720 267 694T143 619T60 502T30 350ZM435 860L515 780L655 870L435 1010L215 870L355 780L435 860Z" />
<glyph unicode="&#xd5;" horiz-adv-x="840" d="M263 350Q263 389 273 420T304 474T354 509T420 522Q459 522 488 510T537 475T567 421T577 350Q577 311 567 280T536 226T486 191T420 178Q383 178 354 190T305 225T274 279T263 350ZM30 350Q30 266 58 197T139 76T262
-2T420 -30Q506 -30 577 -3T701 76T781 196T810 350Q810 434 781 502T699 619T575 694T420 720Q338 720 267 694T143 619T60 502T30 350ZM215 858L298 781Q298 789 301 801T315 822T343 832Q369 832 393 818T442 789T494 775Q529 775 560 790T614 828T645 868L559
961Q544 937 527 921T488 905Q466 905 450 913T420 932T387 951T344 960Q307 960 280 945T236 906T215 858Z" />
<glyph unicode="&#xd6;" horiz-adv-x="840" d="M263 350Q263 389 273 420T304 474T354 509T420 522Q459 522 488 510T537 475T567 421T577 350Q577 311 567 280T536 226T486 191T420 178Q383 178 354 190T305 225T274 279T263 350ZM30 350Q30 266 58 197T139 76T262
-2T420 -30Q506 -30 577 -3T701 76T781 196T810 350Q810 434 781 502T699 619T575 694T420 720Q338 720 267 694T143 619T60 502T30 350ZM447 878Q447 834 478 807T555 780Q600 780 631 807T663 878Q663 922 632 949T555 976Q510 976 479 949T447 878ZM177 878Q177
834 208 807T285 780Q330 780 361 807T393 878Q393 922 362 949T285 976Q240 976 209 949T177 878Z" />
<glyph unicode="&#xd7;" horiz-adv-x="596" d="M151 -8L298 143L445 -8L561 108L410 255L561 402L445 518L298 367L151 518L35 402L186 255L35 108L151 -8Z" />
<glyph unicode="&#xd8;" horiz-adv-x="790" d="M263 350Q263 391 273 422T304 476T354 510T420 522Q457 522 486 511T535 477T566 423T577 350Q577 310 567 278T536 224T486 190T420 178Q383 178 354 189T305 223T274 278T263 350ZM30 350Q30 266 59 197T141 76T265
-2T420 -30Q504 -30 575 -3T699 76T781 196T810 350Q810 434 781 502T699 619T575 694T420 720Q336 720 265 694T141 619T59 502T30 350ZM703 760L55 0L133 -60L782 700L703 760Z" />
<glyph unicode="&#xd9;" horiz-adv-x="746" d="M65 700V230Q65 155 89 104T157 21T255 -25T373 -40Q435 -40 490 -26T589 20T656 103T681 230V700H461V250Q461 222 452 201T423 167T373 155Q343 155 324 167T295 200T285 250V700H65ZM193 930L373 780L483 830L333
990L193 930Z" />
<glyph unicode="&#xda;" horiz-adv-x="746" d="M65 700V230Q65 155 89 104T157 21T255 -25T373 -40Q435 -40 490 -26T589 20T656 103T681 230V700H461V250Q461 222 452 201T423 167T373 155Q343 155 324 167T295 200T285 250V700H65ZM553 930L413 990L263 830L373
780L553 930Z" />
<glyph unicode="&#xdb;" horiz-adv-x="746" d="M65 700V230Q65 155 89 104T157 21T255 -25T373 -40Q435 -40 490 -26T589 20T656 103T681 230V700H461V250Q461 222 452 201T423 167T373 155Q343 155 324 167T295 200T285 250V700H65ZM373 860L453 780L593 870L373
1010L153 870L293 780L373 860Z" />
<glyph unicode="&#xdc;" horiz-adv-x="746" d="M65 700V230Q65 155 89 104T157 21T255 -25T373 -40Q435 -40 490 -26T589 20T656 103T681 230V700H461V250Q461 222 452 201T423 167T373 155Q343 155 324 167T295 200T285 250V700H65ZM430 878Q430 834 461 807T538
780Q583 780 614 807T646 878Q646 922 615 949T538 976Q493 976 462 949T430 878ZM100 878Q100 834 131 807T208 780Q253 780 284 807T316 878Q316 922 285 949T208 976Q163 976 132 949T100 878Z" />
<glyph unicode="&#xdd;" horiz-adv-x="720" d="M540 930L400 990L250 830L360 780L540 930ZM470 700L360 474L250 700H-5L248 273V0H473V275L725 700H470Z" />
<glyph unicode="&#xde;" horiz-adv-x="650" d="M80 700V0H265V700H80ZM202 425H335Q370 425 392 419T426 398T438 355Q438 327 427 312T393 291T335 285H202V120H335Q438 120 502 147T597 228T628 355Q628 430 598 482T503 562T335 590H202V425Z" />
<glyph unicode="&#xdf;" horiz-adv-x="626" d="M392 -12Q438 -12 483 4T564 50T622 117T644 200Q644 236 634 260T608 302T574 331T540 353T514 374T504 400Q504 413 511 426T530 453T552 487T570 531T578 592Q578 657 541 703T440 774T302 799Q214 799 154 768T62
674T30 519L31 -2H226L224 528Q224 562 232 583T258 615T302 626Q326 626 342 617T367 592T376 550Q376 526 369 507T350 472T328 441T310 411T302 377Q302 357 312 342T338 316T372 294T406 271T432 243T442 205Q442 185 433 170T408 147T368 138Q354 138 337
141T304 149T274 160L255 11Q271 5 294 0T342 -9T392 -12Z" />
<glyph unicode="&#xe0;" horiz-adv-x="580" d="M216 139Q216 151 223 160T244 174T275 180Q311 180 334 172T378 147V233Q366 245 340 254T282 269T221 275Q161 275 116 257T45 207T20 130Q20 86 41 55T102 7T193 -10Q241 -10 279 6T339 54T361 130L345 190Q345
157 333 139T302 114T263 106Q251 106 240 109T223 120T216 139ZM121 298Q132 304 155 312T209 326T273 333Q298 333 314 325T337 304T345 272V0H530V320Q530 370 499 404T415 457T293 475Q231 475 171 459T62 424L121 298ZM113 685L293 535L403 585L253 745L113
685Z" />
<glyph unicode="&#xe1;" horiz-adv-x="580" d="M216 139Q216 151 223 160T244 174T275 180Q311 180 334 172T378 147V233Q366 245 340 254T282 269T221 275Q161 275 116 257T45 207T20 130Q20 86 41 55T102 7T193 -10Q241 -10 279 6T339 54T361 130L345 190Q345
157 333 139T302 114T263 106Q251 106 240 109T223 120T216 139ZM121 298Q132 304 155 312T209 326T273 333Q298 333 314 325T337 304T345 272V0H530V320Q530 370 499 404T415 457T293 475Q231 475 171 459T62 424L121 298ZM473 685L333 745L183 585L293 535L473
685Z" />
<glyph unicode="&#xe2;" horiz-adv-x="580" d="M216 139Q216 151 223 160T244 174T275 180Q311 180 334 172T378 147V233Q366 245 340 254T282 269T221 275Q161 275 116 257T45 207T20 130Q20 86 41 55T102 7T193 -10Q241 -10 279 6T339 54T361 130L345 190Q345
157 333 139T302 114T263 106Q251 106 240 109T223 120T216 139ZM121 298Q132 304 155 312T209 326T273 333Q298 333 314 325T337 304T345 272V0H530V320Q530 370 499 404T415 457T293 475Q231 475 171 459T62 424L121 298ZM293 615L373 535L513 625L293 765L73
625L213 535L293 615Z" />
<glyph unicode="&#xe3;" horiz-adv-x="580" d="M216 139Q216 151 223 160T244 174T275 180Q311 180 334 172T378 147V233Q366 245 340 254T282 269T221 275Q161 275 116 257T45 207T20 130Q20 86 41 55T102 7T193 -10Q241 -10 279 6T339 54T361 130L345 190Q345
157 333 139T302 114T263 106Q251 106 240 109T223 120T216 139ZM121 298Q132 304 155 312T209 326T273 333Q298 333 314 325T337 304T345 272V0H530V320Q530 370 499 404T415 457T293 475Q231 475 171 459T62 424L121 298ZM78 618L161 541Q161 549 164 561T178
582T206 592Q232 592 256 578T305 549T357 535Q392 535 423 550T477 588T508 628L422 721Q407 697 390 681T351 665Q329 665 313 673T283 692T250 711T207 720Q170 720 143 705T99 666T78 618Z" />
<glyph unicode="&#xe4;" horiz-adv-x="580" d="M216 139Q216 151 223 160T244 174T275 180Q311 180 334 172T378 147V233Q366 245 340 254T282 269T221 275Q161 275 116 257T45 207T20 130Q20 86 41 55T102 7T193 -10Q241 -10 279 6T339 54T361 130L345 190Q345
157 333 139T302 114T263 106Q251 106 240 109T223 120T216 139ZM121 298Q132 304 155 312T209 326T273 333Q298 333 314 325T337 304T345 272V0H530V320Q530 370 499 404T415 457T293 475Q231 475 171 459T62 424L121 298ZM320 633Q320 589 351 562T428 535Q473
535 504 562T536 633Q536 677 505 704T428 731Q383 731 352 704T320 633ZM50 633Q50 589 81 562T158 535Q203 535 234 562T266 633Q266 677 235 704T158 731Q113 731 82 704T50 633Z" />
<glyph unicode="&#xe5;" horiz-adv-x="580" d="M216 139Q216 151 223 160T244 174T275 180Q311 180 334 172T378 147V233Q366 245 340 254T282 269T221 275Q161 275 116 257T45 207T20 130Q20 86 41 55T102 7T193 -10Q241 -10 279 6T339 54T361 130L345 190Q345
157 333 139T302 114T263 106Q251 106 240 109T223 120T216 139ZM121 298Q132 304 155 312T209 326T273 333Q298 333 314 325T337 304T345 272V0H530V320Q530 370 499 404T415 457T293 475Q231 475 171 459T62 424L121 298ZM154 660Q154 623 172 595T221 551T292
535Q332 535 363 551T413 595T432 660Q432 697 414 725T364 769T292 785Q252 785 221 769T172 725T154 660ZM249 660Q249 674 254 684T270 699T292 705Q311 705 323 693T336 660Q336 646 330 636T315 621T292 616Q273 616 261 627T249 660Z" />
<glyph unicode="&#xe6;" horiz-adv-x="939" d="M223 -10Q310 -10 367 18T444 98L432 99Q456 44 509 17T648 -10Q746 -10 809 26T912 137L734 165Q724 145 697 133T638 120Q613 120 596 129T570 157T557 208L538 190H903Q904 196 904 210T905 239Q905 314 878 365T798
443T668 470Q617 470 575 458T500 422T444 362H457Q450 421 410 448T293 475Q241 475 186 463T62 424L121 298Q140 307 167 315T222 328T273 333Q309 333 327 318T345 272V220H432Q360 251 313 263T221 275Q161 275 116 257T45 207T20 130Q20 63 73 27T223 -10ZM263
106Q239 106 228 114T216 139Q216 153 222 162T242 175T275 180Q301 180 326 173T374 152L344 179L348 144L346 182Q346 146 324 126T263 106ZM556 234Q556 273 564 298T590 337T633 350Q655 350 669 341T691 313T699 266Q699 262 699 260T697 250L720 284H538L556
234Z" />
<glyph unicode="&#xe7;" horiz-adv-x="503" d="M231 230Q231 256 245 276T282 309T333 322Q350 322 372 317T416 299T453 264V441Q429 452 399 461T313 470Q231 470 167 441T67 359T30 230Q30 156 66 102T167 19T313 -10Q368 -10 398 -1T453 21V197Q438 176 418
163T377 144T333 138Q306 138 283 148T245 179T231 230ZM225 62L136 -149Q168 -139 197 -137T233 -134Q248 -134 263 -135T289 -143T300 -164Q300 -176 293 -183T273 -193T243 -196Q231 -196 202 -191T151 -170L98 -256Q142 -279 183 -287T275 -296Q309 -296 342
-283T398 -244T421 -178Q421 -140 405 -115T364 -78T318 -66Q303 -66 290 -67T265 -72L365 56L225 62Z" />
<glyph unicode="&#xe8;" horiz-adv-x="609" d="M136 190H573Q575 206 575 219T575 239Q575 312 546 363T457 442T308 470Q224 470 167 446T77 379T34 279Q32 267 31 255T30 230Q30 161 61 107T157 21T318 -10Q388 -10 438 8T524 59T582 137L404 165Q396 150 383
140T351 125T308 120Q288 120 269 129T238 163T226 230L228 250Q228 283 236 305T261 339T303 350Q323 350 336 343T356 322T367 284H136V190ZM128 681L308 531L418 581L268 741L128 681Z" />
<glyph unicode="&#xe9;" horiz-adv-x="609" d="M136 190H573Q575 206 575 219T575 239Q575 312 546 363T457 442T308 470Q224 470 167 446T77 379T34 279Q32 267 31 255T30 230Q30 161 61 107T157 21T318 -10Q388 -10 438 8T524 59T582 137L404 165Q396 150 383
140T351 125T308 120Q288 120 269 129T238 163T226 230L228 250Q228 283 236 305T261 339T303 350Q323 350 336 343T356 322T367 284H136V190ZM488 681L348 741L198 581L308 531L488 681Z" />
<glyph unicode="&#xea;" horiz-adv-x="609" d="M136 190H573Q575 206 575 219T575 239Q575 312 546 363T457 442T308 470Q224 470 167 446T77 379T34 279Q32 267 31 255T30 230Q30 161 61 107T157 21T318 -10Q388 -10 438 8T524 59T582 137L404 165Q396 150 383
140T351 125T308 120Q288 120 269 129T238 163T226 230L228 250Q228 283 236 305T261 339T303 350Q323 350 336 343T356 322T367 284H136V190ZM308 611L388 531L528 621L308 761L88 621L228 531L308 611Z" />
<glyph unicode="&#xeb;" horiz-adv-x="609" d="M136 190H573Q575 206 575 219T575 239Q575 312 546 363T457 442T308 470Q224 470 167 446T77 379T34 279Q32 267 31 255T30 230Q30 161 61 107T157 21T318 -10Q388 -10 438 8T524 59T582 137L404 165Q396 150 383
140T351 125T308 120Q288 120 269 129T238 163T226 230L228 250Q228 283 236 305T261 339T303 350Q323 350 336 343T356 322T367 284H136V190ZM335 629Q335 585 366 558T443 531Q488 531 519 558T551 629Q551 673 520 700T443 727Q398 727 367 700T335 629ZM65
629Q65 585 96 558T173 531Q218 531 249 558T281 629Q281 673 250 700T173 727Q128 727 97 700T65 629Z" />
<glyph unicode="&#xec;" horiz-adv-x="286" d="M49 460V0H236V460H49ZM-50 681L130 531L240 581L90 741L-50 681Z" />
<glyph unicode="&#xed;" horiz-adv-x="286" d="M49 460V0H236V460H49ZM322 681L182 741L32 581L142 531L322 681Z" />
<glyph unicode="&#xee;" horiz-adv-x="286" d="M49 460V0H236V460H49ZM142 611L222 531L362 621L142 761L-78 621L62 531L142 611Z" />
<glyph unicode="&#xef;" horiz-adv-x="286" d="M49 460V0H236V460H49ZM170 629Q170 585 201 558T278 531Q323 531 354 558T386 629Q386 673 355 700T278 727Q233 727 202 700T170 629ZM-100 629Q-100 585 -69 558T8 531Q53 531 84 558T116 629Q116 673 85 700T8
727Q-37 727 -68 700T-100 629Z" />
<glyph unicode="&#xf0;" horiz-adv-x="657" d="M324 -20Q385 -20 436 0T526 58T586 146T608 255Q608 301 594 351T552 453T483 560T388 671T269 782L118 695Q174 658 223 616T316 527T397 429T466 320L507 318Q461 401 400 442T263 483Q215 483 176 467T108 421T65
349T50 255Q50 175 85 113T182 15T324 -20ZM328 145Q305 145 288 156T261 186T251 230Q251 249 256 264T272 291T297 309T328 316Q351 316 368 305T395 275T405 230Q405 211 400 196T384 169T360 151T328 145ZM140 509L530 624L514 684L124 569L140 509Z" />
<glyph unicode="&#xf1;" horiz-adv-x="605" d="M245 460H50V0H245V460ZM350 280V0H555V300Q555 355 539 393T487 451T387 471Q325 471 288 444T235 371T219 270L245 280Q245 303 252 317T272 339T302 346Q322 346 332 338T346 316T350 280ZM88 614L170 537Q170
545 174 557T188 578T216 588Q242 588 266 574T314 545T366 531Q401 531 433 546T487 584T518 624L432 717Q417 693 400 677T360 661Q338 661 322 669T292 688T259 707T216 716Q179 716 152 701T109 662T88 614Z" />
<glyph unicode="&#xf2;" horiz-adv-x="616" d="M30 230Q30 156 66 102T165 19T308 -10Q388 -10 451 19T550 102T586 230Q586 305 550 359T451 442T308 471Q228 471 165 442T66 359T30 230ZM231 230Q231 258 242 277T270 306T308 316Q328 316 345 306T374 277T385
230Q385 202 374 183T346 155T308 145Q288 145 271 154T242 183T231 230ZM148 681L328 531L438 581L288 741L148 681Z" />
<glyph unicode="&#xf3;" horiz-adv-x="616" d="M30 230Q30 156 66 102T165 19T308 -10Q388 -10 451 19T550 102T586 230Q586 305 550 359T451 442T308 471Q228 471 165 442T66 359T30 230ZM231 230Q231 258 242 277T270 306T308 316Q328 316 345 306T374 277T385
230Q385 202 374 183T346 155T308 145Q288 145 271 154T242 183T231 230ZM468 681L328 741L178 581L288 531L468 681Z" />
<glyph unicode="&#xf4;" horiz-adv-x="616" d="M30 230Q30 156 66 102T165 19T308 -10Q388 -10 451 19T550 102T586 230Q586 305 550 359T451 442T308 471Q228 471 165 442T66 359T30 230ZM231 230Q231 258 242 277T270 306T308 316Q328 316 345 306T374 277T385
230Q385 202 374 183T346 155T308 145Q288 145 271 154T242 183T231 230ZM308 611L388 531L528 621L308 761L88 621L228 531L308 611Z" />
<glyph unicode="&#xf5;" horiz-adv-x="616" d="M30 230Q30 156 66 102T165 19T308 -10Q388 -10 451 19T550 102T586 230Q586 305 550 359T451 442T308 471Q228 471 165 442T66 359T30 230ZM231 230Q231 258 242 277T270 306T308 316Q328 316 345 306T374 277T385
230Q385 202 374 183T346 155T308 145Q288 145 271 154T242 183T231 230ZM93 614L176 537Q176 545 179 557T193 578T221 588Q247 588 271 574T320 545T372 531Q407 531 438 546T492 584T523 624L437 717Q422 693 405 677T366 661Q344 661 328 669T298 688T265 707T222
716Q185 716 158 701T114 662T93 614Z" />
<glyph unicode="&#xf6;" horiz-adv-x="616" d="M30 230Q30 156 66 102T165 19T308 -10Q388 -10 451 19T550 102T586 230Q586 305 550 359T451 442T308 471Q228 471 165 442T66 359T30 230ZM231 230Q231 258 242 277T270 306T308 316Q328 316 345 306T374 277T385
230Q385 202 374 183T346 155T308 145Q288 145 271 154T242 183T231 230ZM335 629Q335 585 366 558T443 531Q488 531 519 558T551 629Q551 673 520 700T443 727Q398 727 367 700T335 629ZM65 629Q65 585 96 558T173 531Q218 531 249 558T281 629Q281 673 250 700T173
727Q128 727 97 700T65 629Z" />
<glyph unicode="&#xf7;" horiz-adv-x="650" d="M207 615Q207 584 222 558T263 516T325 500Q360 500 386 515T428 557T443 615Q443 647 428 673T387 714T325 730Q290 730 264 715T222 673T207 615ZM207 115Q207 84 222 58T263 16T325 0Q360 0 386 15T428 57T443
115Q443 147 428 173T387 214T325 230Q290 230 264 215T222 173T207 115ZM5 280H645V450H5V280Z" />
<glyph unicode="&#xf8;" d="M30 230Q30 151 67 98T167 17T308 -10Q386 -10 449 17T549 97T586 230Q586 310 549 363T449 443T308 470Q230 470 167 443T67 363T30 230ZM211 230Q211 258 225 279T261 313T308 325Q333 325 355 313T391 280T405 230Q405 197 391 176T355
145T308 135Q283 135 261 145T225 176T211 230ZM465 510L75 -14L140 -54L530 470L465 510Z" />
<glyph unicode="&#xf9;" horiz-adv-x="605" d="M360 0H555V460H360V0ZM255 180V460H50V160Q50 106 66 68T119 9T218 -11Q281 -11 317 16T370 90T386 190L360 180Q360 157 353 143T334 121T303 114Q283 114 273 122T259 145T255 180ZM142 681L322 531L432 581L282
741L142 681Z" />
<glyph unicode="&#xfa;" horiz-adv-x="605" d="M360 0H555V460H360V0ZM255 180V460H50V160Q50 106 66 68T119 9T218 -11Q281 -11 317 16T370 90T386 190L360 180Q360 157 353 143T334 121T303 114Q283 114 273 122T259 145T255 180ZM462 681L322 741L172 581L282
531L462 681Z" />
<glyph unicode="&#xfb;" horiz-adv-x="605" d="M360 0H555V460H360V0ZM255 180V460H50V160Q50 106 66 68T119 9T218 -11Q281 -11 317 16T370 90T386 190L360 180Q360 157 353 143T334 121T303 114Q283 114 273 122T259 145T255 180ZM302 611L382 531L522 621L302
761L82 621L222 531L302 611Z" />
<glyph unicode="&#xfc;" horiz-adv-x="605" d="M360 0H555V460H360V0ZM255 180V460H50V160Q50 106 66 68T119 9T218 -11Q281 -11 317 16T370 90T386 190L360 180Q360 157 353 143T334 121T303 114Q283 114 273 122T259 145T255 180ZM330 629Q330 585 361 558T438
531Q483 531 514 558T546 629Q546 673 515 700T438 727Q393 727 362 700T330 629ZM60 629Q60 585 91 558T168 531Q213 531 244 558T276 629Q276 673 245 700T168 727Q123 727 92 700T60 629Z" />
<glyph unicode="&#xfd;" horiz-adv-x="570" d="M585 460H390L240 85H345L195 460H-15L198 20L95 -220H285L585 460ZM465 681L325 741L175 581L285 531L465 681Z" />
<glyph unicode="&#xfe;" horiz-adv-x="645" d="M245 -220V780H50V-220H245ZM615 230Q615 310 584 363T504 443T402 470Q359 470 322 454T258 406T215 331T199 230Q199 174 214 130T257 54T322 7T402 -10Q455 -10 503 17T583 97T615 230ZM409 230Q409 205 398 185T369
152T327 140Q312 140 298 146T271 164T252 192T245 230Q245 251 252 267T271 296T297 314T327 320Q350 320 368 308T398 276T409 230Z" />
<glyph unicode="&#xff;" horiz-adv-x="570" d="M585 460H390L240 85H345L195 460H-15L198 20L95 -220H285L585 460ZM312 629Q312 585 343 558T420 531Q465 531 496 558T528 629Q528 673 497 700T420 727Q375 727 344 700T312 629ZM42 629Q42 585 73 558T150 531Q195
531 226 558T258 629Q258 673 227 700T150 727Q105 727 74 700T42 629Z" />
<glyph unicode="&#x2013;" horiz-adv-x="810" d="M70 155H730V320H70V155Z" />
<glyph unicode="&#x2014;" horiz-adv-x="970" d="M70 155H895V320H70V155Z" />
<glyph unicode="&#x2018;" horiz-adv-x="365" d="M265 430L315 700H175L70 430H265Z" />
<glyph unicode="&#x2019;" horiz-adv-x="365" d="M100 700L50 430H190L295 700H100Z" />
<glyph unicode="&#x201a;" horiz-adv-x="365" d="M110 80L60 -190H200L305 80H110Z" />
<glyph unicode="&#x201c;" horiz-adv-x="615" d="M265 430L315 700H175L70 430H265ZM515 430L565 700H425L320 430H515Z" />
<glyph unicode="&#x201d;" horiz-adv-x="615" d="M100 700L50 430H190L295 700H100ZM350 700L300 430H440L545 700H350Z" />
<glyph unicode="&#x201e;" horiz-adv-x="615" d="M100 80L50 -190H190L295 80H100ZM350 80L300 -190H440L545 80H350Z" />
<glyph unicode="&#x2022;" horiz-adv-x="300" d="M50 460Q50 429 65 403T106 361T168 345Q203 345 229 360T271 402T286 460Q286 492 271 518T230 559T168 575Q133 575 107 560T65 518T50 460Z" />
<glyph unicode="&#x2039;" horiz-adv-x="350" d="M160 259L310 445L190 520L20 255L190 -10L310 65L160 259Z" />
<glyph unicode="&#x203a;" horiz-adv-x="350" d="M190 251L40 65L160 -10L330 255L160 520L40 445L190 251Z" />
</font>
</defs>
</svg>
